<svg width="127" height="19" viewBox="0 0 127 19" fill="none" xmlns="http://www.w3.org/2000/svg">
<path fill-rule="evenodd" clip-rule="evenodd" d="M107.029 1.4978V19H114.237V13.3004L117.778 19H126.402L119.341 8.27528L126.003 1.4978H119.115L114.237 6.36444V1.4978H107.029ZM67.9875 1.4978V6.22447H74.1543V19H81.3037V6.22447H87.6022V1.4978H67.9875ZM50.2726 1.4978V19H66.7826V13.8589H57.0192V12.1175H66.7826V7.86567H57.0192V6.27936H66.7826V1.4978H50.2726ZM88.5546 1.4978V19H105.065V13.8589H95.3005V12.1175H105.065V7.86567H95.3005V6.27936H105.065V1.4978H88.5546ZM31.3384 1.4978H22.3022V19H29.2005V12.1395L28.7174 8.14217L32.546 19H37.9258L41.7887 8.33154L41.2371 12.1395V19H48.1003V1.4978H39.0984L35.1663 12.1395L31.3384 1.4978ZM21.9002 18.9698H14.1443L6.84875 6.58331L10.7267 0L21.9002 18.9698Z" fill="#3F3D3E"/>
<path fill-rule="evenodd" clip-rule="evenodd" d="M0 18.9698H7.22895L10.5347 12.8901H3.30641L0 18.9698Z" fill="#C3483D"/>
</svg>
