<svg width="76" height="21" viewBox="0 0 76 21" fill="none" xmlns="http://www.w3.org/2000/svg">
<path fill-rule="evenodd" clip-rule="evenodd" d="M9.69466 4.65863H9.7683L12.3586 12.7923H7.10437L9.69466 4.65863ZM5.92031 16.3418H13.5427L14.8748 20.5568H19.537L12.285 0H7.32654L0 20.5568H4.5145L5.92031 16.3418ZM34.1888 20.5568H30.1931V11.3136C30.1931 10.2044 30.1191 8.2821 27.6029 8.2821C25.8268 8.2821 24.421 9.53926 24.421 11.8316V20.5568H20.4248V5.32421H24.2728V7.54252H24.3469C24.8649 6.65537 25.9753 4.95463 28.8614 4.95463C31.8952 4.95463 34.1892 6.65537 34.1892 10.0568L34.1888 20.5568ZM54.0957 11.4616C54.3174 9.46526 55.3538 8.2081 57.204 8.2081C58.5353 8.2081 60.0901 8.94768 60.3122 11.4616H54.0957ZM60.1633 16.1202C59.8675 17.1558 58.6838 17.7469 57.5738 17.7469C54.3179 17.7469 54.0957 15.1595 54.0221 14.4195H64.456V13.3107C64.456 6.35937 60.3122 4.95421 57.278 4.95421C50.618 4.95421 50.0255 10.796 50.0255 12.6447C50.0255 18.9301 53.2815 20.9264 57.5738 20.9264C60.1633 20.9264 63.1234 19.9657 64.2339 16.2678L60.1633 16.1202ZM65.7882 0H69.8575V20.5568H65.7882V0ZM71.9303 0H76V20.5568H71.9303V0ZM44.6977 9.98242C44.5496 9.02126 44.1801 7.9861 42.0333 7.9861C39.9614 7.9861 39.6656 8.87326 39.6656 9.53884C39.6656 11.9052 48.99 10.1304 48.99 15.7502C48.99 20.1873 44.7717 21 42.4768 21C39.0732 21 35.3733 19.8177 35.2993 15.7502H39.2954C39.2954 17.0074 40.1096 17.9681 42.5517 17.9681C44.5496 17.9681 45.0676 16.9334 45.0676 16.4154C45.0676 13.8279 35.8176 15.7502 35.8176 10.056C35.8176 7.8381 37.1494 4.95379 41.8116 4.95379C44.7717 4.95379 48.2499 5.69337 48.5465 9.982L44.6977 9.98242Z" fill="#50678E"/>
</svg>
