<svg width="142" height="28" viewBox="0 0 142 28" fill="none" xmlns="http://www.w3.org/2000/svg">
<g clip-path="url(#clip0_134_42)">
<path d="M127.811 21.8787H133.169V4.39966H127.811V21.8787ZM141.05 4.39966V21.8787H135.69V4.39966H141.05ZM11.427 11.1867H7.09301V4.39966H0V21.8787H7.09301V13.212H11.427V21.8787H18.52V4.39966H11.427V11.1867ZM44.7165 10.9011L44.2803 9.74828H38.4507V21.884H44.2803V14.5828C44.2803 12.9938 45.385 12.1266 46.3312 12.1266C47.1187 12.1266 48.1441 12.272 48.1441 13.861V21.8787H53.9737V14.0064C53.9737 9.5977 48.5803 7.86847 44.7165 10.9011ZM104.605 16.7845L101.886 9.74309H97.9084L95.1891 17.0754L92.3508 9.74309H84.5496L81.7509 15.9174L77.8134 9.74309H71.1567L78.9976 22.0242L77.9721 24.3349C77.6151 25.0567 76.7653 25.0931 76.6011 24.4077C76.6011 23.1666 75.502 22.1591 74.1479 22.1591C72.794 22.1591 71.6949 23.1666 71.6949 24.4077C71.7062 25.7059 73.1226 27.404 75.9212 27.2949C78.7199 27.1858 79.8983 25.0567 80.2949 24.1532L86.776 9.7898L91.4443 21.8787H95.6989L98.2993 14.91L100.979 21.8787H104.996L109.528 9.74309H107.205L104.605 16.7845ZM28.5647 9.12514C24.1003 9.12514 20.4859 12.1681 20.4859 15.9174C20.4859 19.6718 24.1003 22.7096 28.5647 22.7096C33.0289 22.7096 36.6434 19.6666 36.6434 15.9174C36.6434 12.1681 33.0289 9.12514 28.5647 9.12514ZM30.5759 19.0954C30.5759 20.1132 29.6751 20.9388 28.5647 20.9388C27.4542 20.9388 26.5535 20.1132 26.5535 19.0954V12.7445C26.5535 11.7267 27.4542 10.9011 28.5647 10.9011C29.6751 10.9011 30.5759 11.7267 30.5759 12.7394V19.0954Z" fill="#DE1E34"/>
<path d="M71.8025 16.8936C71.8422 16.608 71.8648 16.2133 71.8648 15.9173C71.8648 12.1682 68.2503 9.12512 63.7861 9.12512C59.3217 9.12512 55.7072 12.1682 55.7072 15.9173C55.7072 19.6718 59.3217 22.7096 63.7861 22.7096C66.851 22.7096 69.5194 21.2712 70.8903 19.1576L69.1058 18.5501C68.0294 20.0613 66.0522 21.0738 63.7861 21.0738C62.6757 21.0738 61.7749 20.1131 61.7749 19.0953V16.8936H71.8025ZM61.7806 12.7445C61.7806 11.7268 62.6813 10.9062 63.7918 10.9062C64.9021 10.9062 65.8029 11.7319 65.8029 12.7445V15.1644H61.7861V12.7445H61.7806ZM125.777 16.8936C125.821 16.608 125.844 16.2133 125.844 15.9173C125.844 12.1682 122.23 9.12512 117.765 9.12512C113.301 9.12512 109.687 12.1682 109.687 15.9173C109.687 19.6718 113.301 22.7096 117.765 22.7096C120.831 22.7096 123.498 21.2712 124.87 19.1576L123.085 18.5501C122.008 20.0613 120.031 21.0738 117.765 21.0738C116.655 21.0738 115.754 20.1131 115.754 19.0953V16.8936H125.777ZM115.754 12.7445C115.754 11.7268 116.655 10.9062 117.765 10.9062C118.876 10.9062 119.776 11.7319 119.776 12.7445V15.1644H115.76L115.754 12.7445Z" fill="#DE1E34"/>
</g>
<defs>
<clipPath id="clip0_134_42">
<rect width="141.05" height="27.3" fill="white"/>
</clipPath>
</defs>
</svg>
