<svg width="69" height="24" viewBox="0 0 69 24" fill="none" xmlns="http://www.w3.org/2000/svg">
<path fill-rule="evenodd" clip-rule="evenodd" d="M0 0H68.077V24H0V0ZM0.692462 12.0579C0.692462 5.97198 15.6734 1.03851 34.154 1.03851C52.6344 1.03851 67.6153 5.97198 67.6153 12.0579C67.6153 18.1437 52.6344 23.0772 34.154 23.0772C15.6737 23.0772 0.692462 18.1437 0.692462 12.0579Z" fill="#2360A5"/>
<path fill-rule="evenodd" clip-rule="evenodd" d="M0.692383 12.0579C0.692383 5.97199 15.6733 1.03851 34.154 1.03851C52.6343 1.03851 67.6152 5.97199 67.6152 12.0579C67.6152 18.1437 52.6343 23.0772 34.154 23.0772C15.6736 23.0772 0.692383 18.1437 0.692383 12.0579Z" fill="#F6D33C"/>
<path fill-rule="evenodd" clip-rule="evenodd" d="M9.82775 7.51486H15.7757C15.7757 7.51486 15.6171 7.76448 15.6171 8.07632V15.7334C15.6171 16.1493 15.7954 16.503 15.7954 16.503H9.80811C9.80811 16.503 9.98641 16.149 9.98641 15.7953V8.13855C9.98641 7.84744 9.82775 7.51486 9.82775 7.51486ZM18.737 7.53524H24.3927C24.3927 7.53524 24.2341 7.80159 24.2341 8.04794V10.7952L26.2383 8.23243C26.2383 8.23243 26.3577 8.04794 26.3577 7.86345V7.57635H32.1124L29.6715 10.9797C29.6715 10.9797 29.5525 11.1231 29.5525 11.2257C29.5525 11.3283 29.6519 11.4717 29.6519 11.4717L32.7874 16.4535H25.861C25.861 16.4535 25.9803 16.2694 25.9803 16.0846C25.9803 15.9004 25.861 15.6745 25.861 15.6745L24.2137 12.9887V15.9004C24.2137 16.1464 24.3924 16.4739 24.3924 16.4739H18.737C18.737 16.4739 18.8956 16.2487 18.8956 16.0027V8.04758C18.8956 7.80196 18.737 7.53524 18.737 7.53524ZM34.4718 7.59746H44.5887V10.3149C44.5887 10.3149 44.3704 10.1137 44.0935 10.1137H39.9471V10.8582H43.5575V13.2536C43.5575 13.2536 43.3195 13.0524 43.0615 13.0524H39.9074V13.8776H44.1525C44.3904 13.8776 44.5298 13.4952 44.5298 13.4952V16.4739H34.4718C34.4718 16.4739 34.6508 16.2123 34.6508 16.0311V8.2619C34.6512 7.93951 34.4718 7.59746 34.4718 7.59746ZM49.0648 7.49994H57.1539C57.1539 7.49994 56.9952 7.87437 56.9952 8.08251C56.9952 8.29065 57.1338 8.66508 57.1338 8.66508L60.3654 16.4885H54.2989C54.2989 16.4885 54.4375 16.2596 54.3578 16.0726C54.1908 15.6571 54.0257 15.2408 53.8626 14.8237H51.3645C51.3645 14.8237 50.8686 15.9266 50.8686 16.1351C50.8686 16.3426 51.028 16.5096 51.028 16.5096H46.0312L49.1638 8.33213C49.1638 8.33213 49.2832 8.16547 49.2832 7.9577C49.2832 7.74992 49.0648 7.49994 49.0648 7.49994ZM52.4947 11.495L51.8998 13.0971H53.2083L52.4947 11.495Z" fill="#2360A5"/>
</svg>
