<svg width="129" height="19" viewBox="0 0 129 19" fill="none" xmlns="http://www.w3.org/2000/svg">
<path fill-rule="evenodd" clip-rule="evenodd" d="M30.8862 5.44301H35.658L35.8679 7.01292C36.2349 5.75729 38.6476 4.86721 40.1156 4.86721C43.5243 4.86721 44.8874 6.9609 44.8874 10.6245V18.5268H39.5915V11.4611C39.5915 10.0487 39.3295 9.00185 37.9136 9.00185C36.6027 9.00185 35.9208 10.415 35.9208 11.4098V18.5268H30.887L30.8862 5.44301ZM0 18.5795V0.0527442H8.86165C14.1582 0.0527442 16.5702 2.61675 16.5702 6.33309C16.5702 10.3117 14.3682 13.0332 8.86165 13.0332H5.87278V18.5802L0 18.5795ZM8.23334 8.5308C9.64924 8.5308 11.1694 8.21653 11.1694 6.59462C11.1694 4.91996 9.54427 4.55367 8.23334 4.55367H5.87351V8.5308H8.23334ZM89.1986 5.44301H94.0224L94.1803 7.01292C94.6001 5.75729 97.0113 4.86721 98.4808 4.86721C101.837 4.86721 103.252 6.9609 103.252 10.6245V18.5795H97.956V11.4611C97.956 10.0487 97.6403 9.00185 96.2259 9.00185C94.9671 9.00185 94.2845 10.415 94.2845 11.4098V18.5795H89.1978V5.44301H89.1986ZM64.8677 13.8698C64.8677 14.3936 65.1298 15.1774 65.4439 15.4397C65.8109 15.7012 66.2829 15.9635 66.8606 15.9635C67.8038 15.9635 68.5378 15.702 68.5378 14.8119C68.5906 12.6142 60.5672 14.5504 60.5672 9.31685C60.5672 5.65399 63.3997 4.81593 66.3357 4.81593C69.2718 4.81593 73.3103 5.39173 73.1525 9.36887H68.6956C68.6956 9.00258 68.5378 8.74105 68.3286 8.42678C68.0129 8.06049 67.6459 7.90372 66.9655 7.85098C66.0737 7.79896 65.2355 7.95573 65.2355 8.63629C65.2869 10.678 73.5202 9.31686 73.5202 14.1321C73.5202 17.4814 71.1604 19 66.5985 19C63.7139 18.9473 60.096 17.4821 60.096 13.8705L64.8677 13.8698ZM119.141 10.5197C119.141 10.2047 119.141 9.78717 118.722 9.26338C118.512 9.00185 118.04 8.42605 117.306 8.42605C115.313 8.42605 114.788 10.3622 114.788 11.9336C114.788 13.765 115.629 15.2829 117.201 15.2829C118.564 15.2829 119.247 14.0266 119.247 12.979H123.861C123.966 15.7005 122.078 18.9458 116.992 18.9458C112.848 18.9458 109.912 16.0668 109.912 11.8801C109.912 6.8034 113.687 4.86648 116.938 4.86648C121.344 4.86648 123.861 7.53597 123.808 10.519H119.141V10.5197ZM25.2755 18.5795L24.7514 17.4806C23.7554 18.318 22.7065 18.7883 21.0285 18.7883C19.4027 18.737 16.2039 18.5268 16.2039 15.0207C16.2039 9.26338 24.8042 11.8801 24.8042 9.05386C24.8042 8.11177 23.7554 8.16379 23.1784 8.16379C22.1295 8.16379 21.4484 8.3733 21.2906 9.94247H16.8858C16.8858 7.2217 17.7255 4.91922 23.4933 4.91922C29.1048 4.91922 29.681 7.84951 29.681 10.7285V16.6953C29.681 17.4806 29.7338 17.8469 30.2579 18.422V18.5268L25.2755 18.5795ZM24.8564 12.5607C23.0735 13.3995 20.8186 13.346 20.7665 14.6551C20.7665 15.4924 21.2384 15.91 22.2873 15.91C24.0174 15.91 24.9613 14.1313 24.8564 12.5607ZM54.8515 18.5795L54.3274 17.4806C53.3314 18.318 52.2296 18.7883 50.6038 18.7883C48.9259 18.737 45.7271 18.5268 45.7271 15.0207C45.7271 9.26338 54.3274 11.8801 54.3795 9.05386C54.3795 8.11177 53.2785 8.16379 52.7544 8.16379C51.6534 8.16379 51.0237 8.3733 50.8666 9.94247H46.4618C46.4618 7.2217 47.2479 4.91922 53.0686 4.91922C58.6272 4.91922 59.2041 7.84951 59.2041 10.7285V16.6953C59.2041 17.4806 59.2563 17.8469 59.7811 18.422V18.5268L54.8515 18.5795ZM54.4316 12.5607C52.6487 13.3995 50.341 13.346 50.341 14.6551C50.341 15.4924 50.7601 15.91 51.8619 15.91C53.5406 15.91 54.5366 14.1313 54.4316 12.5607ZM109.072 18.5795V5.44301H104.196V18.5795H109.072ZM104.197 3.76835H109.073V0H104.197V3.76835ZM81.3322 4.97197C85.6849 4.97197 88.3596 8.00775 88.3596 11.9849C88.3596 16.0155 85.6841 18.9985 81.3322 18.9985C76.9803 18.9985 74.2527 16.0155 74.2527 11.9849C74.2535 8.00775 76.9803 4.97197 81.3322 4.97197ZM79.026 11.9849C79.026 13.6075 79.5508 15.5965 81.3329 15.6492C83.1166 15.6492 83.5878 13.6075 83.5878 11.9849C83.5878 10.415 83.1158 8.37404 81.3329 8.37404C79.5508 8.37404 79.0788 10.4157 79.026 11.9849ZM126.956 16.0155C127.27 16.0155 127.741 16.0668 127.741 15.6492C127.741 15.2829 127.427 15.2302 127.165 15.2302H126.536V16.0155H126.956ZM128.003 17.2719H127.689L127.06 16.2243H126.535V17.2719H126.273V15.0214H127.218C127.639 15.0214 128.014 15.1474 128.014 15.6492C128.014 16.0668 127.741 16.2243 127.323 16.2243L128.003 17.2719ZM128.765 16.1986C128.765 15.2045 127.978 14.4185 127.035 14.4185C126.8 14.4165 126.567 14.4613 126.35 14.55C126.133 14.6388 125.936 14.7698 125.769 14.9355C125.603 15.1012 125.472 15.2982 125.383 15.5151C125.294 15.732 125.249 15.9643 125.251 16.1986C125.251 17.14 126.038 17.9253 127.035 17.9253C127.493 17.9213 127.93 17.7381 128.254 17.4151C128.578 17.0922 128.761 16.6553 128.765 16.1986ZM125.014 16.1715C125.014 15.644 125.224 15.1381 125.598 14.7651C125.972 14.3922 126.479 14.1826 127.007 14.1826C127.536 14.1826 128.043 14.3922 128.416 14.7651C128.79 15.1381 129 15.644 129 16.1715C129 17.2719 128.108 18.1605 127.007 18.1605C125.906 18.1605 125.014 17.2719 125.014 16.1715Z" fill="#2866AD"/>
</svg>
